<?xml version="1.0" encoding="UTF-8" standalone="no"?>
<!-- Created with Inkscape (http://www.inkscape.org/) -->

<svg
   width="537.57776"
   height="339.71713"
   viewBox="0 0 142.23411 89.883494"
   version="1.1"
   id="svg5"
   inkscape:version="1.1.1 (3bf5ae0d25, 2021-09-20)"
   sodipodi:docname="bear.svg"
   xmlns:inkscape="http://www.inkscape.org/namespaces/inkscape"
   xmlns:sodipodi="http://sodipodi.sourceforge.net/DTD/sodipodi-0.dtd"
   xmlns:xlink="http://www.w3.org/1999/xlink"
   xmlns="http://www.w3.org/2000/svg"
   xmlns:svg="http://www.w3.org/2000/svg">
  <sodipodi:namedview
     id="namedview7"
     pagecolor="#ffffff"
     bordercolor="#666666"
     borderopacity="1.0"
     inkscape:pageshadow="2"
     inkscape:pageopacity="0.0"
     inkscape:pagecheckerboard="0"
     inkscape:document-units="mm"
     showgrid="false"
     units="px"
     inkscape:zoom="0.32026165"
     inkscape:cx="-710.35667"
     inkscape:cy="666.64241"
     inkscape:window-width="1920"
     inkscape:window-height="1001"
     inkscape:window-x="-9"
     inkscape:window-y="-9"
     inkscape:window-maximized="1"
     inkscape:current-layer="layer2"
     fit-margin-top="0"
     fit-margin-left="0"
     fit-margin-right="0"
     fit-margin-bottom="0" />
  <defs
     id="defs2">
    <linearGradient
       inkscape:collect="always"
       id="linearGradient1224">
      <stop
         style="stop-color:#34e5e9;stop-opacity:1"
         offset="0"
         id="stop1220" />
      <stop
         style="stop-color:#ff02ea;stop-opacity:0"
         offset="1"
         id="stop1222" />
    </linearGradient>
    <rect
       x="25.760187"
       y="82.744843"
       width="448.85175"
       height="256.82126"
       id="rect3022" />
    <linearGradient
       id="c">
      <stop
         offset="0"
         stop-color="#b8b8b8"
         stop-opacity=".498"
         id="stop45690" />
      <stop
         offset="1"
         stop-color="#7f7f7f"
         stop-opacity="0"
         id="stop45692" />
    </linearGradient>
    <linearGradient
       id="a">
      <stop
         offset="0"
         stop-color="#ffd43b"
         id="stop45695" />
      <stop
         offset="1"
         stop-color="#ffe873"
         id="stop45697" />
    </linearGradient>
    <linearGradient
       id="b">
      <stop
         offset="0"
         stop-color="#5a9fd4"
         id="stop45700" />
      <stop
         offset="1"
         stop-color="#306998"
         id="stop45702" />
    </linearGradient>
    <linearGradient
       gradientTransform="matrix(0.04047948,0,0,0.04087022,-267.56901,-59.336455)"
       gradientUnits="userSpaceOnUse"
       xlink:href="#a"
       id="e"
       y2="137.27299"
       x2="112.031"
       y1="192.35201"
       x1="150.961" />
    <linearGradient
       gradientTransform="matrix(0.04047948,0,0,0.04087022,-267.56901,-59.336455)"
       gradientUnits="userSpaceOnUse"
       xlink:href="#b"
       id="d"
       y2="114.398"
       x2="135.66499"
       y1="20.604"
       x1="26.649" />
    <radialGradient
       gradientTransform="matrix(0,-0.2964,1.43676,0,-128.544,150.52)"
       gradientUnits="userSpaceOnUse"
       xlink:href="#c"
       id="f"
       fy="132.286"
       fx="61.519001"
       r="29.037001"
       cy="132.286"
       cx="61.519001" />
    <linearGradient
       inkscape:collect="always"
       xlink:href="#linearGradient1224"
       id="linearGradient1226"
       x1="66.632675"
       y1="37.62685"
       x2="141.31648"
       y2="100.18844"
       gradientUnits="userSpaceOnUse" />
  </defs>
  <g
     inkscape:groupmode="layer"
     id="layer2"
     inkscape:label="Background"
     transform="translate(-28.423358,-11.603206)">
    <path
       style="fill:url(#linearGradient1226);stroke:none;stroke-width:0.264583px;stroke-linecap:butt;stroke-linejoin:miter;stroke-opacity:1;fill-opacity:1"
       d="m 64.18684,67.643248 c 0.340955,3.790871 -5.744826,7.233951 -4.089221,10.661184 1.553753,3.216392 8.4538,0.109886 10.223054,3.21296 1.1639,2.04135 -1.895935,4.532099 -1.606481,6.864048 0.404978,3.262655 1.596711,7.272564 4.527351,8.762616 6.54234,3.326364 14.47406,-4.239198 21.7605,-3.359002 6.175067,0.745944 11.013277,7.191286 17.233147,7.156126 7.04404,-0.0398 14.64192,-3.152069 19.42379,-8.324475 4.431,-4.79287 6.19987,-12.020752 6.27988,-18.547538 0.0763,-6.220068 -4.85608,-11.635571 -5.54966,-17.817319 -0.48457,-4.318909 -0.12422,-8.805835 1.0223,-12.997884 1.40144,-5.124087 9.12188,-9.437783 7.0101,-14.312273 -1.78135,-4.111766 -8.39145,-3.513358 -12.85184,-3.943177 -7.35793,-0.709036 -14.90813,4.233715 -22.05258,2.336698 -2.49414,-0.662252 -3.8584,-3.63529 -6.279877,-4.527352 -6.18724,-2.279358 -13.46182,-3.695542 -19.71588,-1.60648 -6.60683,2.206897 -9.603732,10.374898 -15.62667,13.874144 -2.755386,1.600842 -7.070983,0.572984 -9.054704,3.066915 -2.740998,3.445977 -2.422208,8.882404 -1.314393,13.143926 0.835828,3.215249 3.883476,5.39415 5.695702,8.17844 1.739758,2.672953 4.679789,5.001996 4.965482,8.178443 z"
       id="path1036"
       sodipodi:nodetypes="sssssssssssssssssssss" />
  </g>
  <g
     inkscape:label="Bear"
     inkscape:groupmode="layer"
     id="layer1"
     transform="translate(-28.423358,-11.603206)">
    <g
       id="g1133">
      <path
         style="fill:#ffffff;fill-opacity:1;stroke:#ffffff;stroke-width:0.30619px;stroke-linecap:butt;stroke-linejoin:miter;stroke-opacity:1"
         d="m 91.409011,42.293731 c -2.6199,0.915666 -5.00669,2.970494 -7.0357,5.304264 -2.52305,2.902009 -4.77512,6.447953 -6.09061,10.472521 -1.14644,3.507375 -1.52517,7.485478 -1.36513,11.288563 0.16774,3.98619 0.90426,8.081038 2.41524,11.560574 0.97097,2.235987 2.40169,4.246238 4.09541,5.576278 2.92733,2.298776 6.49703,2.921534 9.87098,3.672179 2.28106,0.5075 4.61622,0.545707 6.930689,0.544034 2.84068,-0.0026 5.71594,0.01317 8.50585,-0.680038 2.3156,-0.574775 4.81091,-1.065358 6.72067,-2.856141 2.53483,-2.376915 4.16607,-6.167203 5.56555,-9.79249 1.19348,-3.091631 2.15972,-6.477473 2.31024,-9.928494 0.0882,-2.024241 -0.33555,-4.065019 -0.84009,-5.984295 -0.78713,-2.994319 -1.89243,-5.904434 -3.36033,-8.432422 -1.07154,-1.845374 -2.4651,-3.364653 -3.8854,-4.760234 -2.27645,-2.236853 -4.61343,-4.65035 -7.35072,-5.712285 -1.61091,-0.624955 -3.35925,-0.226669 -5.04051,-0.272014 -3.814549,-0.102886 -7.762519,-1.287439 -11.446139,0 z"
         id="path16412"
         sodipodi:nodetypes="ssssssssssssssssss" />
      <path
         style="fill:#ffffff;stroke:#ffffff;stroke-width:0.348462px;stroke-linecap:butt;stroke-linejoin:miter;stroke-opacity:1"
         d="m 93.024211,15.585294 c 4.77332,-1.237405 10.135809,-1.010843 14.212709,0.136013 4.33785,-8.8782319 16.45646,-1.800949 9.45246,7.140351 1.71606,9.065679 -2.6675,16.134461 -7.27636,19.788986 -9.365,5.50728 -13.565379,2.947009 -18.700929,0.340011 -6.88627,-4.538243 -6.92619,-13.527096 -6.39232,-20.40101 -8.7628,-8.355829 4.15015,-15.9283005 8.70444,-7.004351 z"
         id="path3311"
         sodipodi:nodetypes="ccccccc" />
      <path
         style="fill:none;stroke:#808080;stroke-width:0.237064;stroke-linecap:butt;stroke-linejoin:miter;stroke-miterlimit:4;stroke-dasharray:none;stroke-opacity:1"
         d="m 99.831531,31.203478 c -2.64893,0.187624 -5.3256,2.887573 -5.19519,4.964708 0.15357,2.44632 2.52448,5.860494 5.656989,5.867389 2.85552,0.0063 5.10527,-3.0942 5.1952,-5.325782 0.10192,-2.529004 -2.31823,-5.742801 -5.656999,-5.506315 z"
         id="path10200"
         sodipodi:nodetypes="sssss" />
      <path
         style="fill:#000000;stroke:#000000;stroke-width:0.348462px;stroke-linecap:butt;stroke-linejoin:miter;stroke-opacity:1"
         d="m 105.09383,25.63821 c -0.0619,0.676453 -0.005,1.880331 0.6732,1.923426 0.64384,0.04093 0.86554,-1.085946 0.86554,-1.731083 0,-0.573455 -0.34914,-1.454827 -0.92238,-1.470737 -0.5167,-0.01434 -0.56926,0.763639 -0.61636,1.278394 z"
         id="path11434"
         sodipodi:nodetypes="sssss" />
      <path
         style="fill:#000000;stroke:#000000;stroke-width:0.348462px;stroke-linecap:butt;stroke-linejoin:miter;stroke-opacity:1"
         d="m 94.226471,25.63821 c -0.0619,0.676453 -0.005,1.880331 0.67321,1.923426 0.64383,0.04093 0.74653,-1.085946 0.74653,-1.731083 0,-0.573455 -0.0771,-1.52283 -0.65037,-1.538741 -0.5167,-0.01434 -0.72227,0.831643 -0.76937,1.346398 z"
         id="path11767"
         sodipodi:nodetypes="sssss" />
      <path
         style="fill:#000000;stroke:#000000;stroke-width:0.348462px;stroke-linecap:butt;stroke-linejoin:miter;stroke-opacity:1"
         d="m 97.342421,32.688145 c -0.10241,0.498736 0.11389,1.07278 0.44202,1.462073 0.44102,0.523196 1.16112,0.805612 1.83609,0.918045 0.755779,0.125894 1.602689,0.05571 2.278119,-0.306016 0.43894,-0.23507 0.7912,-0.663843 0.98605,-1.122055 0.10681,-0.251189 0.1401,-0.552776 0.068,-0.816038 -0.13955,-0.509573 -0.46891,-1.013844 -0.91805,-1.292066 -0.6611,-0.409513 -1.5318,-0.449752 -2.304579,-0.362822 -0.59701,0.06716 -1.25895,0.160484 -1.74574,0.51256 -0.29985,0.216863 -0.56748,0.643834 -0.64192,1.006319 z"
         id="path11838"
         sodipodi:nodetypes="ssssssssss" />
      <path
         style="fill:none;stroke:#000000;stroke-width:0.348462px;stroke-linecap:butt;stroke-linejoin:miter;stroke-opacity:1"
         d="m 99.907481,35.129545 c -0.009,0.0087 0.905769,2.099585 -2.50045,3.702593"
         id="path12027"
         sodipodi:nodetypes="cc" />
      <path
         style="fill:none;stroke:#000000;stroke-width:0.348462px;stroke-linecap:butt;stroke-linejoin:miter;stroke-opacity:1"
         d="m 100.34089,35.108292 c 0,0 -0.955879,1.99422 2.60246,3.749346"
         id="path12109"
         sodipodi:nodetypes="cc" />
      <path
         style="fill:#cccccc;stroke:#cccccc;stroke-width:0.241787;stroke-linecap:butt;stroke-linejoin:miter;stroke-miterlimit:4;stroke-dasharray:none;stroke-opacity:1"
         d="m 85.185941,21.249181 c -0.89761,-0.04176 -1.45581,-1.103906 -1.83178,-1.920054 -0.36232,-0.786507 -0.55062,-1.701043 -0.4414,-2.560077 0.10382,-0.816569 0.4681,-1.636085 1.01521,-2.251104 0.57021,-0.640995 1.39235,-1.05506 2.20696,-1.324177 0.71591,-0.236508 1.51287,-0.285668 2.2511,-0.132417 0.74159,0.153949 1.42338,0.508426 1.98626,1.015202 0.76142,0.685521 1.61461,1.344881 1.36832,2.33938 -0.16293,0.657887 -0.81645,0.780778 -1.41245,1.103483 -0.41725,0.225916 -1.2359,0.706229 -1.2359,0.706229 -0.22973,-0.354031 -0.23306,-0.654031 -0.23306,-1.057598 -1.28691,2.071074 -1.63645,1.201003 -2.04432,0.85831 -0.0648,0.478935 0.17029,0.886751 0.42135,1.201627 -0.75183,0.541118 -1.45722,2.021686 -2.05029,2.021196 z"
         id="path12703"
         sodipodi:nodetypes="cssssssssccccc" />
      <path
         style="fill:#4d4d4d;stroke:#4d4d4d;stroke-width:0.348462px;stroke-linecap:butt;stroke-linejoin:miter;stroke-opacity:1"
         d="m 98.265671,32.274032 c 0.17688,0.417732 0.71067,0.625379 1.15406,0.721286 0.47414,0.102556 0.977609,-0.05393 1.442559,-0.192345 0.39167,-0.116596 0.93678,-0.156961 1.10598,-0.528941 0.12397,-0.272568 -0.0309,-0.651649 -0.24043,-0.865545 -0.23422,-0.239074 -0.63058,-0.239911 -0.96172,-0.288512 -0.33303,-0.04887 -0.67813,-0.05745 -1.009799,0 -0.46957,0.08134 -1.03236,0.122391 -1.34639,0.480856 -0.15123,0.172621 -0.23375,0.461872 -0.14426,0.673201 z"
         id="path15721"
         sodipodi:nodetypes="sssssssss" />
      <path
         style="fill:#cccccc;stroke:#cccccc;stroke-width:0.241787;stroke-linecap:butt;stroke-linejoin:miter;stroke-miterlimit:4;stroke-dasharray:none;stroke-opacity:1"
         d="m 115.32003,21.385188 c 0.8976,-0.04176 1.45581,-1.103907 1.83178,-1.920055 0.36231,-0.786507 0.55061,-1.701043 0.44139,-2.560077 -0.10379,-0.816569 -0.4681,-1.636085 -1.0152,-2.251103 -0.57021,-0.640996 -1.39236,-1.055061 -2.20696,-1.324178 -0.71591,-0.236508 -1.51288,-0.285668 -2.2511,-0.132417 -0.74159,0.153949 -1.42339,0.508426 -1.98627,1.015203 -0.76141,0.68552 -1.61461,1.34488 -1.36832,2.339379 0.16293,0.657887 0.81645,0.780778 1.41246,1.103483 0.41724,0.225916 1.2359,0.706229 1.2359,0.706229 0.22972,-0.354031 0.23306,-0.65403 0.23306,-1.057597 1.28691,2.071073 1.63644,1.201002 2.04432,0.858309 0.0648,0.478935 -0.1703,0.886751 -0.42135,1.201627 0.75183,0.541118 1.45721,2.021686 2.05029,2.021197 z"
         id="path15898"
         sodipodi:nodetypes="cssssssssccccc" />
      <path
         style="fill:none;stroke:#999999;stroke-width:0.348462px;stroke-linecap:butt;stroke-linejoin:miter;stroke-opacity:1"
         d="m 89.576511,50.862157 c 0,0 -8.43242,14.416717 -0.54403,19.720981"
         id="path20085" />
      <path
         style="fill:none;stroke:#999999;stroke-width:0.348462px;stroke-linecap:butt;stroke-linejoin:miter;stroke-opacity:1"
         d="m 108.75925,50.72615 c 0,0 8.43241,14.416717 0.54402,19.720981"
         id="path20167" />
      <path
         style="fill:#333333;stroke:#333333;stroke-width:0.348462px;stroke-linecap:butt;stroke-linejoin:miter;stroke-opacity:1"
         d="m 83.911761,55.367274 c -0.0588,7.790543 1.499,14.964561 2.1421,17.000845 0.2705,0.856475 0.80493,1.073718 1.25806,1.088055 7.81064,0.24714 17.960339,1.077683 25.569269,0.272012 0.41565,-0.04402 0.73169,-0.542672 0.81604,-0.952046 1.05177,-5.103852 2.11689,-10.810864 1.9041,-16.456819 -0.0177,-0.466423 -0.21465,-1.188258 -0.68003,-1.224063 -7.64587,-0.588257 -19.938679,-1.201936 -30.193509,-0.816039 -0.45303,0.01704 -0.81261,0.634712 -0.81603,1.088055 z"
         id="path44424"
         sodipodi:nodetypes="sssssssss" />
      <path
         style="fill:#f2f2f2;fill-opacity:1;stroke:#f2f2f2;stroke-width:0.430224px;stroke-linecap:butt;stroke-linejoin:miter;stroke-opacity:1"
         d="m 82.953501,78.91898 c -0.22514,0.63951 -0.3476,1.338876 -0.43282,2.033306 -0.11463,0.934112 -0.13774,1.889944 -0.10129,2.834664 0.061,1.581827 0.0833,3.228889 0.53411,4.700527 0.33241,1.085259 0.84925,2.133877 1.54709,2.870549 1.01591,1.072435 2.32237,1.701546 3.60988,2.009383 1.1844,0.283182 2.45608,0.25681 3.60988,-0.191372 0.96031,-0.373024 1.94897,-0.996333 2.57849,-2.009383 0.81452,-1.310746 0.92002,-3.156107 1.25241,-4.784249 0.36537,-1.789714 0.75216,-3.604029 0.81038,-5.454041 0.0646,-2.051741 0.2897,-4.356803 -0.5157,-6.123838 -0.3054,-0.67005 -0.92163,-1.035139 -1.47342,-1.33959 -0.94416,-0.520947 -1.9948,-0.785057 -3.02051,-0.765482 -0.78035,0.01482 -1.74914,-0.06195 -2.50482,0.191375 -1.36199,0.456575 -2.69674,0.928706 -3.83089,2.009381 -0.99946,0.952342 -1.54733,2.554587 -2.0628,4.01877 z"
         id="path29843"
         sodipodi:nodetypes="ssssssssssssssss" />
      <path
         style="fill:#cccccc;fill-opacity:1;stroke:#cccccc;stroke-width:0.348462px;stroke-linecap:butt;stroke-linejoin:miter;stroke-opacity:1"
         d="m 83.991041,83.152333 c -0.20782,0.4545 -0.32086,0.95154 -0.39952,1.445072 -0.10581,0.663875 -0.12715,1.343184 -0.0935,2.014598 0.0563,1.124206 0.0769,2.294773 0.49302,3.340668 0.30684,0.771295 0.78392,1.516549 1.42807,2.040102 0.93776,0.76218 2.14371,1.209291 3.33217,1.42807 1.09327,0.201257 2.26713,0.182515 3.33216,-0.136008 0.88643,-0.265109 1.79903,-0.708095 2.38012,-1.428071 0.75186,-0.931548 0.84925,-2.243047 1.15606,-3.400169 0.33726,-1.271951 0.6943,-2.561386 0.74804,-3.876192 0.0596,-1.458173 0.26741,-3.096382 -0.47603,-4.352217 -0.2819,-0.476204 -0.85073,-0.735673 -1.36006,-0.952047 -0.87153,-0.370237 -1.84134,-0.55794 -2.78814,-0.544029 -0.72032,0.01054 -1.61458,-0.04403 -2.31212,0.13601 -1.25721,0.324488 -2.48928,0.660032 -3.53617,1.42807 -0.92258,0.676829 -1.42829,1.815546 -1.90411,2.856143 z"
         id="path20202"
         sodipodi:nodetypes="ssssssssssssssss" />
      <path
         style="fill:#cccccc;fill-opacity:1;stroke:#cccccc;stroke-width:0.305297px;stroke-linecap:butt;stroke-linejoin:miter;stroke-opacity:1"
         d="m 84.106091,77.558813 c -0.50343,0.228758 -0.36791,1.182541 -0.0836,1.656797 0.17943,0.299263 0.62522,0.581011 0.947,0.446061 0.36314,-0.152298 0.50009,-0.737085 0.38994,-1.115153 -0.14879,-0.510696 -0.76911,-1.207761 -1.25339,-0.987705 z"
         id="path20528"
         sodipodi:nodetypes="sssss" />
      <path
         style="fill:#cccccc;fill-opacity:1;stroke:#cccccc;stroke-width:0.348462px;stroke-linecap:butt;stroke-linejoin:miter;stroke-opacity:1"
         d="m 86.388161,75.756965 c -0.49597,0.297096 -0.29532,1.218371 -0.034,1.734087 0.16913,0.333787 0.55481,0.735901 0.91804,0.646031 0.55602,-0.137569 0.95855,-0.985168 0.78204,-1.530076 -0.19212,-0.593124 -1.13123,-1.170431 -1.66608,-0.850042 z"
         id="path20530"
         sodipodi:nodetypes="sssss" />
      <path
         style="fill:#cccccc;fill-opacity:1;stroke:#cccccc;stroke-width:0.382181px;stroke-linecap:butt;stroke-linejoin:miter;stroke-opacity:1"
         d="m 90.638371,73.803102 c -0.93597,-0.03294 -1.34311,1.559778 -1.29207,2.494936 0.0268,0.49047 0.3259,1.194779 0.81604,1.227014 0.70463,0.04635 1.28479,-0.897475 1.39407,-1.595119 0.1195,-0.762868 -0.14635,-2.099672 -0.91804,-2.126831 z"
         id="path20532"
         sodipodi:nodetypes="sssss" />
      <path
         style="fill:#cccccc;fill-opacity:1;stroke:#cccccc;stroke-width:0.440388px;stroke-linecap:butt;stroke-linejoin:miter;stroke-opacity:1"
         d="m 94.483781,73.884236 c -0.82767,0.01354 -1.37823,1.181788 -1.46529,2.00498 -0.068,0.643352 0.15665,1.650173 0.79205,1.771845 0.94095,0.180183 1.99475,-1.049105 2.05933,-2.00498 0.0506,-0.748159 -0.63632,-1.784115 -1.38609,-1.771845 z"
         id="path20534"
         sodipodi:nodetypes="sssss" />
      <path
         style="fill:#ececec;fill-opacity:1;stroke:#ececec;stroke-width:0.167262;stroke-linecap:butt;stroke-linejoin:miter;stroke-miterlimit:4;stroke-dasharray:none;stroke-opacity:1"
         d="m 118.272,78.726293 c 0.22515,0.63951 0.3476,1.338876 0.43283,2.033306 0.11458,0.934113 0.13773,1.889944 0.10128,2.834665 -0.061,1.581826 -0.0834,3.228888 -0.53412,4.700527 -0.3324,1.085258 -0.84926,2.133876 -1.54709,2.870549 -1.01591,1.072435 -2.32237,1.701546 -3.60988,2.009382 -1.18439,0.283182 -2.45608,0.25681 -3.60988,-0.191372 -0.96031,-0.373024 -1.94896,-0.996332 -2.57849,-2.009383 -0.81452,-1.310746 -0.92002,-3.156107 -1.25241,-4.784249 -0.36537,-1.789714 -0.75216,-3.604028 -0.81038,-5.454041 -0.0646,-2.051741 -0.2897,-4.356803 0.5157,-6.123838 0.3054,-0.67005 0.92163,-1.035139 1.47342,-1.33959 0.94416,-0.520947 1.9948,-0.785057 3.02051,-0.765482 0.78035,0.01482 1.74915,-0.06195 2.50482,0.191375 1.36199,0.456575 2.69674,0.928706 3.83089,2.009382 0.99947,0.952341 1.54733,2.554586 2.0628,4.018769 z"
         id="path37955"
         sodipodi:nodetypes="ssssssssssssssss" />
      <path
         style="fill:#cccccc;fill-opacity:1;stroke:#cccccc;stroke-width:0.34072px;stroke-linecap:butt;stroke-linejoin:miter;stroke-opacity:1"
         d="m 117.25678,82.959646 c 0.19868,0.4545 0.30676,0.95154 0.38196,1.445072 0.10115,0.663875 0.12156,1.343184 0.0894,2.014598 -0.0539,1.124206 -0.0736,2.294773 -0.47134,3.340668 -0.29336,0.771295 -0.74948,1.516549 -1.36533,2.040102 -0.89654,0.76218 -2.04951,1.209291 -3.18574,1.428071 -1.04524,0.201256 -2.16751,0.182514 -3.18574,-0.136009 -0.84748,-0.265109 -1.71998,-0.708094 -2.27554,-1.428071 -0.71881,-0.931548 -0.81192,-2.243047 -1.10525,-3.400169 -0.32245,-1.271951 -0.66379,-2.561386 -0.71517,-3.876192 -0.057,-1.458173 -0.25566,-3.096382 0.45511,-4.352216 0.26951,-0.476205 0.81334,-0.735674 1.3003,-0.952048 0.83323,-0.370237 1.76042,-0.55794 2.66562,-0.544029 0.68866,0.01054 1.54363,-0.04403 2.21052,0.136011 1.20196,0.324487 2.37989,0.660032 3.38079,1.428069 0.88202,0.676829 1.36553,1.815546 1.82043,2.856143 z"
         id="path37957"
         sodipodi:nodetypes="ssssssssssssssss" />
      <path
         style="fill:#cccccc;fill-opacity:1;stroke:#cccccc;stroke-width:0.305297px;stroke-linecap:butt;stroke-linejoin:miter;stroke-opacity:1"
         d="m 117.11942,77.366126 c 0.50344,0.228758 0.3679,1.182542 0.0835,1.656797 -0.17943,0.299263 -0.62523,0.581011 -0.947,0.446061 -0.36314,-0.152298 -0.5001,-0.737084 -0.38995,-1.115153 0.1488,-0.510696 0.76912,-1.207761 1.2534,-0.987705 z"
         id="path37959"
         sodipodi:nodetypes="sssss" />
      <path
         style="fill:#cccccc;fill-opacity:1;stroke:#cccccc;stroke-width:0.348462px;stroke-linecap:butt;stroke-linejoin:miter;stroke-opacity:1"
         d="m 114.83735,75.564278 c 0.49596,0.297096 0.29532,1.218371 0.034,1.734087 -0.16913,0.333787 -0.55482,0.735902 -0.91805,0.646031 -0.55602,-0.137569 -0.95855,-0.985168 -0.78204,-1.530075 0.19213,-0.593125 1.13123,-1.170432 1.66609,-0.850043 z"
         id="path37961"
         sodipodi:nodetypes="sssss" />
      <path
         style="fill:#cccccc;fill-opacity:1;stroke:#cccccc;stroke-width:0.382181px;stroke-linecap:butt;stroke-linejoin:miter;stroke-opacity:1"
         d="m 110.58714,73.610416 c 0.93597,-0.03294 1.3431,1.559777 1.29206,2.494935 -0.0268,0.49047 -0.3259,1.194779 -0.81604,1.227014 -0.70463,0.04635 -1.28479,-0.897475 -1.39407,-1.595119 -0.11949,-0.762867 0.14636,-2.099672 0.91805,-2.12683 z"
         id="path37963"
         sodipodi:nodetypes="sssss" />
      <path
         style="fill:#cccccc;fill-opacity:1;stroke:#cccccc;stroke-width:0.440388px;stroke-linecap:butt;stroke-linejoin:miter;stroke-opacity:1"
         d="m 106.74172,73.691549 c 0.82768,0.01354 1.37824,1.181788 1.4653,2.00498 0.068,0.643352 -0.15666,1.650173 -0.79205,1.771845 -0.94096,0.180183 -1.99475,-1.049105 -2.05933,-2.00498 -0.0506,-0.748159 0.63632,-1.784115 1.38608,-1.771845 z"
         id="path37965"
         sodipodi:nodetypes="sssss" />
      <g
         transform="matrix(0.01172398,0.00299987,-0.00299987,0.01172398,86.778831,57.233866)"
         fill="#61dafb"
         id="g45679">
        <path
           d="m 666.3,296.5 c 0,-32.5 -40.7,-63.3 -103.1,-82.4 14.4,-63.6 8,-114.2 -20.2,-130.4 -6.5,-3.8 -14.1,-5.6 -22.4,-5.6 v 22.3 c 4.6,0 8.3,0.9 11.4,2.6 13.6,7.8 19.5,37.5 14.9,75.7 -1.1,9.4 -2.9,19.3 -5.1,29.4 -19.6,-4.8 -41,-8.5 -63.5,-10.9 -13.5,-18.5 -27.5,-35.3 -41.6,-50 32.6,-30.3 63.2,-46.9 84,-46.9 V 78 C 493.2,78 457.2,97.6 420.8,131.6 384.4,97.8 348.4,78.4 320.9,78.4 v 22.3 c 20.7,0 51.4,16.5 84,46.6 -14,14.7 -28,31.4 -41.3,49.9 -22.6,2.4 -44,6.1 -63.6,11 -2.3,-10 -4,-19.7 -5.2,-29 -4.7,-38.2 1.1,-67.9 14.6,-75.8 3,-1.8 6.9,-2.6 11.5,-2.6 V 78.5 c -8.4,0 -16,1.8 -22.6,5.6 -28.1,16.2 -34.4,66.7 -19.9,130.1 -62.2,19.2 -102.7,49.9 -102.7,82.3 0,32.5 40.7,63.3 103.1,82.4 -14.4,63.6 -8,114.2 20.2,130.4 6.5,3.8 14.1,5.6 22.5,5.6 27.5,0 63.5,-19.6 99.9,-53.6 36.4,33.8 72.4,53.2 99.9,53.2 8.4,0 16,-1.8 22.6,-5.6 28.1,-16.2 34.4,-66.7 19.9,-130.1 62,-19.1 102.5,-49.9 102.5,-82.3 z M 536.1,229.8 c -3.7,12.9 -8.3,26.2 -13.5,39.5 -4.1,-8 -8.4,-16 -13.1,-24 -4.6,-8 -9.5,-15.8 -14.4,-23.4 14.2,2.1 27.9,4.7 41,7.9 z m -45.8,106.5 c -7.8,13.5 -15.8,26.3 -24.1,38.2 -14.9,1.3 -30,2 -45.2,2 -15.1,0 -30.2,-0.7 -45,-1.9 -8.3,-11.9 -16.4,-24.6 -24.2,-38 -7.6,-13.1 -14.5,-26.4 -20.8,-39.8 6.2,-13.4 13.2,-26.8 20.7,-39.9 7.8,-13.5 15.8,-26.3 24.1,-38.2 14.9,-1.3 30,-2 45.2,-2 15.1,0 30.2,0.7 45,1.9 8.3,11.9 16.4,24.6 24.2,38 7.6,13.1 14.5,26.4 20.8,39.8 -6.3,13.4 -13.2,26.8 -20.7,39.9 z m 32.3,-13 c 5.4,13.4 10,26.8 13.8,39.8 -13.1,3.2 -26.9,5.9 -41.2,8 4.9,-7.7 9.8,-15.6 14.4,-23.7 4.6,-8 8.9,-16.1 13,-24.1 z M 421.2,430 c -9.3,-9.6 -18.6,-20.3 -27.8,-32 9,0.4 18.2,0.7 27.5,0.7 9.4,0 18.7,-0.2 27.8,-0.7 -9,11.7 -18.3,22.4 -27.5,32 z m -74.4,-58.9 c -14.2,-2.1 -27.9,-4.7 -41,-7.9 3.7,-12.9 8.3,-26.2 13.5,-39.5 4.1,8 8.4,16 13.1,24 4.7,8 9.5,15.8 14.4,23.4 z M 420.7,163 c 9.3,9.6 18.6,20.3 27.8,32 -9,-0.4 -18.2,-0.7 -27.5,-0.7 -9.4,0 -18.7,0.2 -27.8,0.7 9,-11.7 18.3,-22.4 27.5,-32 z m -74,58.9 c -4.9,7.7 -9.8,15.6 -14.4,23.7 -4.6,8 -8.9,16 -13,24 -5.4,-13.4 -10,-26.8 -13.8,-39.8 13.1,-3.1 26.9,-5.8 41.2,-7.9 z m -90.5,125.2 c -35.4,-15.1 -58.3,-34.9 -58.3,-50.6 0,-15.7 22.9,-35.6 58.3,-50.6 8.6,-3.7 18,-7 27.7,-10.1 5.7,19.6 13.2,40 22.5,60.9 -9.2,20.8 -16.6,41.1 -22.2,60.6 -9.9,-3.1 -19.3,-6.5 -28,-10.2 z M 310,490 c -13.6,-7.8 -19.5,-37.5 -14.9,-75.7 1.1,-9.4 2.9,-19.3 5.1,-29.4 19.6,4.8 41,8.5 63.5,10.9 13.5,18.5 27.5,35.3 41.6,50 -32.6,30.3 -63.2,46.9 -84,46.9 -4.5,-0.1 -8.3,-1 -11.3,-2.7 z m 237.2,-76.2 c 4.7,38.2 -1.1,67.9 -14.6,75.8 -3,1.8 -6.9,2.6 -11.5,2.6 -20.7,0 -51.4,-16.5 -84,-46.6 14,-14.7 28,-31.4 41.3,-49.9 22.6,-2.4 44,-6.1 63.6,-11 2.3,10.1 4.1,19.8 5.2,29.1 z m 38.5,-66.7 c -8.6,3.7 -18,7 -27.7,10.1 -5.7,-19.6 -13.2,-40 -22.5,-60.9 9.2,-20.8 16.6,-41.1 22.2,-60.6 9.9,3.1 19.3,6.5 28.1,10.2 35.4,15.1 58.3,34.9 58.3,50.6 -0.1,15.7 -23,35.6 -58.4,50.6 z"
           id="path45675" />
        <circle
           r="45.700001"
           cy="296.5"
           cx="420.89999"
           id="circle45677" />
      </g>
      <g
         id="g45741"
         transform="matrix(0.52854983,0.09267511,-0.09267511,0.52854983,239.74176,122.04773)">
        <path
           d="m -262.5384,-58.494325 c -0.32979,0.0015 -0.64475,0.02965 -0.92193,0.07872 -0.81651,0.144205 -0.96475,0.446142 -0.96475,1.002885 v 0.735342 h 1.92943 v 0.245091 h -2.65347 c -0.56077,0 -1.05175,0.337053 -1.2053,0.978203 -0.17717,0.734911 -0.18501,1.193502 0,1.960866 0.13715,0.571205 0.46463,0.978202 1.0254,0.978202 h 0.66339 v -0.88149 c 0,-0.636832 0.55098,-1.198611 1.2053,-1.198611 h 1.92704 c 0.53653,0 0.96475,-0.44168 0.96475,-0.980433 v -1.837099 c 0,-0.522921 -0.44111,-0.915742 -0.96468,-1.002956 -0.33143,-0.05519 -0.67532,-0.08023 -1.00518,-0.07872 z m -1.0434,0.591426 c 0.19933,0 0.36202,0.16536 0.36202,0.368787 0,0.202635 -0.16269,0.366484 -0.36195,0.366484 -0.20004,0 -0.36209,-0.163849 -0.36209,-0.366484 0,-0.203427 0.16205,-0.368787 0.36202,-0.368787 z"
           fill="url(#d)"
           id="path45712"
           style="fill:url(#d);stroke-width:0.0719584" />
        <path
           d="m -260.32791,-56.432285 v 0.856737 c 0,0.664248 -0.56315,1.223293 -1.20531,1.223293 h -1.92711 c -0.52789,0 -0.96475,0.451826 -0.96475,0.980433 v 1.837242 c 0,0.52285 0.45471,0.8304 0.96475,0.980433 0.61071,0.179536 1.19638,0.21199 1.92704,0 0.48579,-0.140678 0.96475,-0.423691 0.96475,-0.980433 v -0.735343 h -1.92711 v -0.245091 h 2.89178 c 0.56078,0 0.76975,-0.391165 0.96475,-0.978202 0.20141,-0.604379 0.19285,-1.185587 0,-1.960866 -0.13859,-0.558182 -0.40326,-0.978203 -0.96475,-0.978203 z m -1.08391,4.652543 c 0.20004,0 0.36209,0.163921 0.36209,0.366556 0,0.203426 -0.16205,0.368786 -0.36209,0.368786 -0.19932,0 -0.36195,-0.16536 -0.36195,-0.368786 0,-0.202635 0.16263,-0.366556 0.36195,-0.366556 z"
           fill="url(#e)"
           id="path45714"
           style="fill:url(#e);stroke-width:0.0719584" />
      </g>
      <path
         d="m 107.34392,61.078504 c -0.009,0.01657 -0.0351,0.01961 -0.0591,0.0067 -0.0287,-0.01212 -0.0406,-0.0357 -0.0304,-0.05476 0.009,-0.01657 0.0351,-0.01961 0.0591,-0.0067 0.0262,0.0108 0.0406,0.0357 0.0304,0.05476 z m -0.23777,-0.175631 c -0.0147,0.01346 -0.008,0.04145 0.0139,0.05975 0.0171,0.01981 0.0464,0.02491 0.0603,0.01106 0.0139,-0.01389 0.008,-0.04145 -0.0125,-0.06223 -0.0184,-0.01737 -0.047,-0.0219 -0.0616,-0.0086 z m 0.37394,0.182513 c -0.0272,-0.0071 -0.0522,-2.33e-4 -0.0599,0.02015 -0.006,0.01788 0.009,0.04028 0.0373,0.04781 0.0271,0.0071 0.0522,2.35e-4 0.0586,-0.01767 0.006,-0.01707 -0.0107,-0.03987 -0.036,-0.05028 z m 2.24989,-2.8837 c -1.14969,-0.616939 -2.49754,-0.216028 -3.11448,0.933663 -0.49328,0.919263 -0.33682,2.016369 0.34104,2.736691 0.0959,0.07598 0.16831,0.03053 0.19722,-0.02335 0.0276,-0.0514 0.17726,-0.336186 0.27067,-0.510259 0,0 -0.64695,-0.187024 -0.56954,-0.623758 0,0 0.035,-0.291922 -0.0676,-0.42704 0,0 -0.11999,-0.231995 0.0818,-0.120534 0,0 0.19751,0.12733 0.2052,0.385553 0.01,0.417371 0.36342,0.488603 0.51131,0.497501 0.0902,-0.122391 0.19349,-0.185489 0.28253,-0.208172 -0.43578,-0.300043 -0.86726,-0.618046 -0.43936,-1.415458 0.12232,-0.227953 0.24669,-0.308537 0.45761,-0.383253 0.007,-0.06544 0.0561,-0.325399 0.32357,-0.551267 0.20215,0.03909 0.45185,0.530719 0.45185,0.530719 0.19069,0.04254 0.3818,0.114133 0.55836,0.208881 0.17656,0.09475 0.34187,0.21442 0.48275,0.349788 0,0 0.54816,-0.06456 0.69204,0.0831 -0.0408,0.348568 -0.23,0.532079 -0.28047,0.574394 0.0539,0.217884 0.0737,0.375867 -0.0481,0.602986 -0.42923,0.799897 -0.95171,0.601736 -1.44309,0.405314 0.0411,0.106402 0.0391,0.265433 -0.0655,0.46023 -0.1499,0.279339 -0.33782,0.623688 -0.37429,0.691661 -0.0289,0.05387 -0.0259,0.139822 0.0896,0.17724 0.97658,0.169605 1.96069,-0.315454 2.45398,-1.234717 0.61694,-1.149693 0.15279,-2.522937 -0.9969,-3.139876 z m -2.75758,2.202381 c -0.0152,0.0025 -0.0229,0.02296 -0.0173,0.04621 0.006,0.02039 0.0221,0.03639 0.0387,0.03137 0.0152,-0.0025 0.0229,-0.02294 0.0173,-0.04621 -0.006,-0.02039 -0.0221,-0.03639 -0.0387,-0.03137 z m -0.0535,-0.115187 c -0.0116,0.0076 -0.0104,0.02535 0.002,0.04257 0.009,0.01536 0.0267,0.02181 0.0388,0.01333 0.0116,-0.0076 0.0104,-0.02535 -0.002,-0.04257 -0.0139,-0.01389 -0.0285,-0.01856 -0.0388,-0.01333 z m 0.11022,0.439207 c -0.0191,0.0037 -0.0274,0.03123 -0.0168,0.05719 0.009,0.02928 0.0315,0.04469 0.0495,0.03715 0.0166,-0.005 0.0249,-0.03253 0.0168,-0.05718 -0.008,-0.02883 -0.0315,-0.04469 -0.0495,-0.03715 z m -0.0291,-0.172556 c -0.0177,0.0011 -0.0293,0.02273 -0.0262,0.0489 0.003,0.02616 0.021,0.04646 0.0362,0.04395 0.0191,-0.0037 0.0306,-0.02521 0.0276,-0.0514 -0.001,-0.02527 -0.0185,-0.04512 -0.0375,-0.04149 z"
         id="path46055"
         style="fill:#cccccc;stroke-width:0.00940713" />
      <path
         style="fill:#ffffff;fill-opacity:1;stroke:#ffffff;stroke-width:0.131702;stroke-linecap:butt;stroke-linejoin:miter;stroke-miterlimit:4;stroke-dasharray:none;stroke-opacity:1"
         d="m 122.54893,61.341807 0.67319,3.558338 c 0.72708,-0.676847 0.96485,-1.369411 1.22619,-2.284068 l -0.50491,0.649158 -0.50489,0.3366 c 0.28235,-0.711232 0.31255,-1.392677 0.31255,-2.139811 -0.12788,0.355787 -0.37569,0.55034 -0.64914,0.793413 V 61.10138 l -0.2164,0.384683 z"
         id="path1638"
         sodipodi:nodetypes="cccccccccc" />
      <path
         style="fill:#ffffff;fill-opacity:1;stroke:#ffffff;stroke-width:0.131702;stroke-linecap:butt;stroke-linejoin:miter;stroke-miterlimit:4;stroke-dasharray:none;stroke-opacity:1"
         d="m 82.831931,49.554289 -2.06549,2.974677 c -0.38794,-0.914476 -0.32269,-1.643807 -0.18839,-2.585539 l 0.19636,0.79861 0.32378,0.513207 c 0.0322,-0.764555 0.28242,-1.3991 0.58704,-2.081315 -0.0283,0.377012 0.11867,0.655696 0.26926,0.98914 l 0.47053,-1.053779 0.0408,0.439487 z"
         id="path5769"
         sodipodi:nodetypes="cccccccccc" />
    </g>
  </g>
</svg>
